<svg height="100%" version="1.1" viewBox="0 0 36 36" width="100%" xmlns="http://www.w3.org/2000/svg"><use class="ytp-svg-shadow" xlink:href="#ytp-id-21"></use><path d="M27,9 L9,9 C7.9,9 7,9.9 7,11 L7,14 L9,14 L9,11 L27,11 L27,25 L20,25 L20,27 L27,27 C28.1,27 29,26.1 29,25 L29,11 C29,9.9 28.1,9 27,9 L27,9 Z M7,24 L7,27 L10,27 C10,25.34 8.66,24 7,24 L7,24 Z M7,20 L7,22 C9.76,22 12,24.24 12,27 L14,27 C14,23.13 10.87,20 7,20 L7,20 Z M7,16 L7,18 C11.97,18 16,22.03 16,27 L18,27 C18,20.92 13.07,16 7,16 L7,16 Z" fill="#fff" id="ytp-id-21"></path></svg>